<svg width="703" height="504" viewBox="0 0 703 504" fill="none" xmlns="http://www.w3.org/2000/svg">
<ellipse rx="105.5" ry="5" transform="matrix(-1 0 0 1 579.5 499)" fill="#3A3D51" fill-opacity="0.9"/>
<ellipse rx="105.5" ry="5" transform="matrix(-1 0 0 1 129.5 469)" fill="#DBDBDB"/>
<rect width="30.3773" height="8.17739" rx="4.0887" transform="matrix(-0.90459 -0.426283 -0.426283 0.90459 261.988 35.5137)" fill="#8C2F46"/>
<path d="M284.574 46.0787C285.758 45.2327 285.668 43.4449 284.405 42.7226L241.976 18.4646C239.987 17.3275 237.451 18.1273 236.475 20.1998C235.55 22.1617 236.391 24.5017 238.353 25.4263L282.564 46.2602C283.217 46.5682 283.986 46.4988 284.574 46.0787Z" fill="#EFE5E3"/>
<rect width="53.9708" height="3.27096" rx="1.63548" transform="matrix(-0.90459 -0.426283 -0.426283 0.90459 275.659 55.7166)" fill="#EFE5E3"/>
<rect width="55.6063" height="12.2122" rx="6.10612" transform="matrix(-0.814833 0.579696 0.579696 0.814833 255.497 0)" fill="#7E1E26"/>
<rect width="34.345" height="6.54191" rx="3.27096" transform="matrix(-0.765619 0.643294 0.643294 0.765619 237.069 24.5513)" fill="#2B1F27"/>
<path d="M229.865 36.7983C240.98 40.8036 244.584 53.9709 238.361 75.2321" stroke="#383B3D" stroke-width="2"/>
<circle r="124.5" transform="matrix(-1 0 0 1 573.5 369.5)" stroke="#312D32" stroke-width="10"/>
<circle r="111.961" transform="matrix(-1 0 0 1 573.5 369.5)" stroke="#DFD7DE" stroke-width="5"/>
<circle r="106.277" transform="matrix(-1 0 0 1 573.5 369.5)" stroke="#C3BEBE" stroke-width="3"/>
<path d="M588.614 278.896C589.951 268.87 597.45 270.634 601.906 270.077C581.855 263.394 546.096 268.406 550.106 268.406C554.117 268.406 557.98 273.326 561.043 278.061C562.436 294.213 561.043 338.494 561.043 346.57C561.043 351.583 549.346 360.774 549.346 360.774C549.346 360.774 499.217 399.206 493.369 399.206C488.69 399.206 478.533 393.729 473.242 392.058C470.735 399.577 487.521 428.819 499.217 439.68C497.825 434.946 495.876 424.27 499.217 420.928C503.395 416.751 556.03 389.18 561.043 389.18C566.056 389.18 579.424 386.673 586.943 389.18C594.12 391.572 637.908 419.257 642.085 425.106C645.426 429.784 643.477 440.423 642.085 445.157C658.719 437.174 672.162 404.811 672.162 399.206C672.162 397.071 652.11 402.548 648.769 399.206C645.427 395.864 601.981 365.786 595.298 360.774C589.951 356.763 588.336 350.191 587.779 344.899C587.222 329.861 587.277 288.922 588.614 278.896Z" fill="#DED6D6"/>
<rect width="8.35484" height="56.8129" transform="matrix(-1 0 0 1 579.348 286.787)" fill="#E1DDDD"/>
<rect width="3.34194" height="56.8129" transform="matrix(-1 0 0 1 574.336 286.787)" fill="#D3D1D1"/>
<rect width="8.35484" height="56.8129" transform="matrix(-0.559193 0.829038 0.829038 0.559193 594.073 370.335)" fill="#E1DDDD"/>
<rect width="3.34194" height="56.8129" transform="matrix(-0.559193 0.829038 0.829038 0.559193 591.27 374.491)" fill="#D3D1D1"/>
<rect width="8.35484" height="56.8129" transform="matrix(-0.517424 -0.855729 -0.855729 0.517424 554.284 380.827)" fill="#E1DDDD"/>
<rect width="3.34194" height="56.8129" transform="matrix(-0.517424 -0.855729 -0.855729 0.517424 551.69 376.537)" fill="#D3D1D1"/>
<circle r="7.85484" transform="matrix(-1 0 0 1 574.336 365.323)" stroke="black"/>
<circle r="2.84194" transform="matrix(-1 0 0 1 574.336 365.323)" stroke="black"/>
<circle r="2.50645" transform="matrix(-1 0 0 1 561.803 366.158)" fill="#312D32"/>
<circle r="2.50645" transform="matrix(-1 0 0 1 573.5 352.79)" fill="#312D32"/>
<circle r="2.50645" transform="matrix(-1 0 0 1 586.868 366.158)" fill="#312D32"/>
<circle r="2.50645" transform="matrix(-1 0 0 1 573.5 377.855)" fill="#312D32"/>
<path d="M672.087 398.742C668.467 410.996 657.717 437.174 643.681 443.858" stroke="#9B9594"/>
<path d="M551.777 268.406C564.197 265.402 586.032 264.229 600.235 270.077" stroke="#9B9594"/>
<path d="M498.306 438.845C489.338 429.744 474.703 407.246 472.406 392.058" stroke="#9B9594"/>
<circle r="124.5" transform="matrix(-1 0 0 1 129.5 337.5)" stroke="#312D32" stroke-width="10"/>
<circle r="111.961" transform="matrix(-1 0 0 1 129.5 337.5)" stroke="#DFD7DE" stroke-width="5"/>
<circle r="106.277" transform="matrix(-1 0 0 1 129.5 337.5)" stroke="#C3BEBE" stroke-width="3"/>
<path d="M144.614 246.896C145.951 236.87 153.45 238.634 157.906 238.077C137.855 231.394 102.096 236.406 106.106 236.406C110.117 236.406 113.98 241.326 117.043 246.061C118.436 262.213 117.043 306.494 117.043 314.57C117.043 319.583 105.346 328.774 105.346 328.774C105.346 328.774 55.2175 367.206 49.3691 367.206C44.6904 367.206 34.5333 361.729 29.2419 360.058C26.7354 367.577 43.5207 396.819 55.2175 407.68C53.825 402.946 51.8755 392.27 55.2175 388.928C59.3949 384.751 112.03 357.18 117.043 357.18C122.056 357.18 135.424 354.673 142.943 357.18C150.12 359.572 193.908 387.257 198.085 393.106C201.426 397.784 199.477 408.423 198.085 413.157C214.719 405.174 228.162 372.811 228.162 367.206C228.162 365.071 208.11 370.548 204.769 367.206C201.427 363.864 157.981 333.786 151.298 328.774C145.951 324.763 144.336 318.191 143.779 312.899C143.222 297.861 143.277 256.922 144.614 246.896Z" fill="#DED6D6"/>
<rect width="8.35484" height="56.8129" transform="matrix(-1 0 0 1 135.348 254.787)" fill="#E1DDDD"/>
<rect width="3.34194" height="56.8129" transform="matrix(-1 0 0 1 130.336 254.787)" fill="#D3D1D1"/>
<rect width="8.35484" height="56.8129" transform="matrix(-0.559193 0.829038 0.829038 0.559193 150.073 338.335)" fill="#E1DDDD"/>
<rect width="3.34194" height="56.8129" transform="matrix(-0.559193 0.829038 0.829038 0.559193 147.27 342.491)" fill="#D3D1D1"/>
<rect width="8.35484" height="56.8129" transform="matrix(-0.517424 -0.855729 -0.855729 0.517424 110.284 348.827)" fill="#E1DDDD"/>
<rect width="3.34194" height="56.8129" transform="matrix(-0.517424 -0.855729 -0.855729 0.517424 107.69 344.537)" fill="#D3D1D1"/>
<circle r="7.85484" transform="matrix(-1 0 0 1 130.336 333.323)" stroke="black"/>
<circle r="2.84194" transform="matrix(-1 0 0 1 130.336 333.323)" stroke="black"/>
<circle r="2.50645" transform="matrix(-1 0 0 1 117.803 334.158)" fill="#312D32"/>
<circle r="2.50645" transform="matrix(-1 0 0 1 129.5 320.79)" fill="#312D32"/>
<circle r="2.50645" transform="matrix(-1 0 0 1 142.868 334.158)" fill="#312D32"/>
<circle r="2.50645" transform="matrix(-1 0 0 1 129.5 345.855)" fill="#312D32"/>
<path d="M228.087 366.742C224.467 378.996 213.717 405.174 199.681 411.858" stroke="#9B9594"/>
<path d="M107.777 236.406C120.197 233.402 142.032 232.229 156.235 238.077" stroke="#9B9594"/>
<path d="M54.3064 406.845C45.3384 397.744 30.7029 375.246 28.4064 360.058" stroke="#9B9594"/>
<rect width="16.3548" height="252.086" transform="matrix(-0.926405 -0.376529 -0.376529 0.926405 522.175 80.2705)" fill="url(#paint0_linear_6_1574)"/>
<path d="M274.141 58.7742L250.208 47.9377L122.943 329.009C119.951 335.618 122.882 343.401 129.491 346.394C136.1 349.386 143.884 346.454 146.876 339.846L274.141 58.7742Z" fill="#EFE5E3"/>
<circle r="24.5322" transform="matrix(-1 0 0 1 132.034 337.521)" fill="url(#paint1_radial_6_1574)"/>
<mask id="path-50-inside-1_6_1574" fill="white">
<path fill-rule="evenodd" clip-rule="evenodd" d="M226.918 159.641L242.224 166.572L220.974 213.503L279.152 239.845L274.941 249.146L216.763 222.803L216.763 222.804L201.457 215.874L226.918 159.641Z"/>
</mask>
<path fill-rule="evenodd" clip-rule="evenodd" d="M226.918 159.641L242.224 166.572L220.974 213.503L279.152 239.845L274.941 249.146L216.763 222.803L216.763 222.804L201.457 215.874L226.918 159.641Z" fill="#EFE5E3"/>
<path d="M242.224 166.572L242.637 165.661L243.548 166.073L243.135 166.984L242.224 166.572ZM226.918 159.641L226.007 159.229L226.42 158.318L227.331 158.73L226.918 159.641ZM220.974 213.503L220.562 214.414L219.651 214.002L220.063 213.091L220.974 213.503ZM279.152 239.845L279.565 238.934L280.476 239.347L280.063 240.258L279.152 239.845ZM274.941 249.146L275.852 249.558L275.44 250.469L274.529 250.056L274.941 249.146ZM216.763 222.803L215.853 222.39L216.266 221.48L217.176 221.892L216.763 222.803ZM216.763 222.804L217.674 223.217L217.261 224.127L216.351 223.715L216.763 222.804ZM201.457 215.874L201.045 216.785L200.134 216.372L200.546 215.461L201.457 215.874ZM241.812 167.483L226.506 160.552L227.331 158.73L242.637 165.661L241.812 167.483ZM220.063 213.091L241.313 166.159L243.135 166.984L221.885 213.916L220.063 213.091ZM278.74 240.756L220.562 214.414L221.387 212.592L279.565 238.934L278.74 240.756ZM274.03 248.733L278.241 239.433L280.063 240.258L275.852 249.558L274.03 248.733ZM217.176 221.892L275.354 248.235L274.529 250.056L216.351 223.714L217.176 221.892ZM215.852 222.391L215.853 222.39L217.674 223.217L217.674 223.217L215.852 222.391ZM201.87 214.963L217.176 221.893L216.351 223.715L201.045 216.785L201.87 214.963ZM227.829 160.054L202.368 216.286L200.546 215.461L226.007 159.229L227.829 160.054Z" fill="#E1E1E1" mask="url(#path-50-inside-1_6_1574)"/>
<circle r="27.8031" transform="matrix(-1 0 0 1 404.979 370.618)" fill="#EEE3E4"/>
<path d="M549.719 409.869C544.54 402.782 525.678 388.445 491.66 387.791" stroke="#565656"/>
<path fill-rule="evenodd" clip-rule="evenodd" d="M547.368 404.013C546.256 402.578 545.63 400.956 545.63 399.239C545.63 393.368 552.952 388.608 561.985 388.608C571.017 388.608 578.339 393.368 578.339 399.239C578.339 405.11 571.017 409.87 561.985 409.87C561.36 409.87 560.744 409.847 560.137 409.803C559.347 412.658 556.447 414.776 552.991 414.776C548.926 414.776 545.631 411.847 545.631 408.234C545.631 406.625 546.284 405.152 547.368 404.013Z" fill="#312D32"/>
<mask id="path-55-inside-2_6_1574" fill="white">
<path fill-rule="evenodd" clip-rule="evenodd" d="M568.668 342.821L576.572 329.532L584.477 342.821L598.682 336.716L597.266 352.113L612.347 355.524L602.151 367.148L612.347 378.772L597.266 382.183L598.682 397.58L584.477 391.475L576.572 404.764L568.668 391.475L554.462 397.58L555.878 382.183L540.797 378.772L550.993 367.148L540.797 355.524L555.878 352.113L554.462 336.716L568.668 342.821ZM575.755 388.409C564.465 388.409 555.312 379.256 555.312 367.965C555.312 356.675 564.465 347.522 575.755 347.522C587.046 347.522 596.199 356.675 596.199 367.965C596.199 379.256 587.046 388.409 575.755 388.409Z"/>
</mask>
<path d="M576.572 329.532L575.713 329.02L576.572 327.575L577.432 329.02L576.572 329.532ZM568.668 342.821L569.527 343.332L569.079 344.086L568.273 343.739L568.668 342.821ZM584.477 342.821L584.871 343.739L584.065 344.086L583.617 343.332L584.477 342.821ZM598.682 336.716L598.288 335.797L599.832 335.133L599.678 336.807L598.682 336.716ZM597.266 352.113L597.045 353.088L596.19 352.895L596.27 352.021L597.266 352.113ZM612.347 355.524L612.568 354.548L614.208 354.919L613.099 356.183L612.347 355.524ZM602.151 367.148L601.399 367.807L600.821 367.148L601.399 366.488L602.151 367.148ZM612.347 378.772L613.099 378.112L614.208 379.376L612.568 379.747L612.347 378.772ZM597.266 382.183L596.27 382.274L596.19 381.401L597.045 381.207L597.266 382.183ZM598.682 397.58L599.678 397.488L599.832 399.162L598.288 398.498L598.682 397.58ZM584.477 391.475L583.617 390.963L584.065 390.209L584.871 390.556L584.477 391.475ZM576.572 404.764L577.432 405.275L576.572 406.72L575.713 405.275L576.572 404.764ZM568.668 391.475L568.273 390.556L569.079 390.209L569.527 390.963L568.668 391.475ZM554.462 397.58L554.857 398.498L553.312 399.162L553.466 397.488L554.462 397.58ZM555.878 382.183L556.099 381.207L556.955 381.401L556.874 382.274L555.878 382.183ZM540.797 378.772L540.577 379.747L538.937 379.376L540.046 378.112L540.797 378.772ZM550.993 367.148L551.745 366.488L552.324 367.148L551.745 367.807L550.993 367.148ZM540.797 355.524L540.046 356.183L538.937 354.919L540.577 354.548L540.797 355.524ZM555.878 352.113L556.874 352.021L556.955 352.895L556.099 353.088L555.878 352.113ZM554.462 336.716L553.466 336.807L553.312 335.133L554.857 335.797L554.462 336.716ZM577.432 330.043L569.527 343.332L567.808 342.309L575.713 329.02L577.432 330.043ZM583.617 343.332L575.713 330.043L577.432 329.02L585.336 342.309L583.617 343.332ZM599.077 337.634L584.871 343.739L584.082 341.902L598.288 335.797L599.077 337.634ZM596.27 352.021L597.687 336.624L599.678 336.807L598.262 352.204L596.27 352.021ZM612.127 356.499L597.045 353.088L597.487 351.137L612.568 354.548L612.127 356.499ZM601.399 366.488L611.595 354.864L613.099 356.183L602.903 367.807L601.399 366.488ZM611.595 379.431L601.399 367.807L602.903 366.488L613.099 378.112L611.595 379.431ZM597.045 381.207L612.127 377.796L612.568 379.747L597.487 383.158L597.045 381.207ZM597.687 397.671L596.27 382.274L598.262 382.091L599.678 397.488L597.687 397.671ZM584.871 390.556L599.077 396.661L598.288 398.498L584.082 392.393L584.871 390.556ZM575.713 404.252L583.617 390.963L585.336 391.986L577.432 405.275L575.713 404.252ZM569.527 390.963L577.432 404.252L575.713 405.275L567.808 391.986L569.527 390.963ZM554.067 396.661L568.273 390.556L569.063 392.393L554.857 398.498L554.067 396.661ZM556.874 382.274L555.458 397.671L553.466 397.488L554.883 382.091L556.874 382.274ZM541.018 377.796L556.099 381.207L555.658 383.158L540.577 379.747L541.018 377.796ZM551.745 367.807L541.549 379.431L540.046 378.112L550.242 366.488L551.745 367.807ZM541.549 354.864L551.745 366.488L550.242 367.807L540.046 356.183L541.549 354.864ZM556.099 353.088L541.018 356.499L540.577 354.548L555.658 351.137L556.099 353.088ZM555.458 336.624L556.874 352.021L554.883 352.204L553.466 336.807L555.458 336.624ZM568.273 343.739L554.067 337.634L554.857 335.797L569.063 341.902L568.273 343.739ZM556.312 367.965C556.312 378.704 565.017 387.409 575.755 387.409V389.409C563.912 389.409 554.312 379.808 554.312 367.965H556.312ZM575.755 348.522C565.017 348.522 556.312 357.227 556.312 367.965H554.312C554.312 356.122 563.912 346.522 575.755 346.522V348.522ZM595.199 367.965C595.199 357.227 586.494 348.522 575.755 348.522V346.522C587.598 346.522 597.199 356.122 597.199 367.965H595.199ZM575.755 387.409C586.494 387.409 595.199 378.704 595.199 367.965H597.199C597.199 379.808 587.598 389.409 575.755 389.409V387.409Z" fill="#B1A9B0" mask="url(#path-55-inside-2_6_1574)"/>
<mask id="path-57-inside-3_6_1574" fill="white">
<path fill-rule="evenodd" clip-rule="evenodd" d="M562.641 345.696L566.836 330.814L577.911 341.604L590.052 332.03L592.669 347.269L608.12 346.661L601.279 360.528L614.137 369.116L600.452 376.314L605.805 390.82L590.503 388.6L586.308 403.482L575.233 392.692L563.092 402.265L560.475 387.026L545.025 387.635L551.865 373.768L539.008 365.179L552.692 357.981L547.339 343.475L562.641 345.696ZM581.287 387.896C570.381 390.818 559.171 384.346 556.249 373.44C553.326 362.535 559.799 351.325 570.704 348.402C581.61 345.48 592.82 351.952 595.742 362.858C598.665 373.764 592.193 384.974 581.287 387.896Z"/>
</mask>
<path d="M566.836 330.814L565.874 330.542L566.33 328.924L567.534 330.097L566.836 330.814ZM562.641 345.696L563.603 345.967L563.365 346.811L562.497 346.685L562.641 345.696ZM577.911 341.604L578.53 342.389L577.841 342.932L577.213 342.32L577.911 341.604ZM590.052 332.03L589.433 331.245L590.754 330.204L591.038 331.861L590.052 332.03ZM592.669 347.269L592.709 348.269L591.832 348.303L591.684 347.439L592.669 347.269ZM608.12 346.661L608.08 345.661L609.76 345.595L609.016 347.103L608.12 346.661ZM601.279 360.528L600.724 361.359L599.995 360.872L600.383 360.085L601.279 360.528ZM614.137 369.116L614.692 368.285L616.09 369.219L614.602 370.002L614.137 369.116ZM600.452 376.314L599.514 376.661L599.21 375.838L599.987 375.429L600.452 376.314ZM605.805 390.82L606.743 390.474L607.325 392.051L605.662 391.81L605.805 390.82ZM590.503 388.6L589.541 388.329L589.779 387.484L590.647 387.61L590.503 388.6ZM586.308 403.482L587.27 403.753L586.814 405.372L585.61 404.198L586.308 403.482ZM575.233 392.692L574.614 391.906L575.303 391.363L575.931 391.975L575.233 392.692ZM563.092 402.265L563.711 403.051L562.391 404.092L562.106 402.435L563.092 402.265ZM560.475 387.026L560.435 386.027L561.312 385.993L561.46 386.857L560.475 387.026ZM545.025 387.635L545.064 388.634L543.384 388.7L544.128 387.193L545.025 387.635ZM551.865 373.768L552.42 372.937L553.15 373.424L552.762 374.211L551.865 373.768ZM539.008 365.179L538.452 366.011L537.054 365.077L538.542 364.294L539.008 365.179ZM552.692 357.981L553.63 357.635L553.934 358.458L553.158 358.866L552.692 357.981ZM547.339 343.475L546.401 343.822L545.819 342.244L547.483 342.486L547.339 343.475ZM567.799 331.085L563.603 345.967L561.678 345.424L565.874 330.542L567.799 331.085ZM577.213 342.32L566.139 331.53L567.534 330.097L578.609 340.888L577.213 342.32ZM590.672 332.816L578.53 342.389L577.292 340.819L589.433 331.245L590.672 332.816ZM591.684 347.439L589.067 332.2L591.038 331.861L593.655 347.1L591.684 347.439ZM608.159 347.66L592.709 348.269L592.63 346.27L608.08 345.661L608.159 347.66ZM600.383 360.085L607.223 346.218L609.016 347.103L602.176 360.97L600.383 360.085ZM613.581 369.948L600.724 361.359L601.835 359.696L614.692 368.285L613.581 369.948ZM599.987 375.429L613.671 368.231L614.602 370.002L600.918 377.2L599.987 375.429ZM604.867 391.167L599.514 376.661L601.39 375.968L606.743 390.474L604.867 391.167ZM590.647 387.61L605.949 389.831L605.662 391.81L590.36 389.59L590.647 387.61ZM585.345 403.211L589.541 388.329L591.466 388.871L587.27 403.753L585.345 403.211ZM575.931 391.975L587.006 402.766L585.61 404.198L574.536 393.408L575.931 391.975ZM562.473 401.48L574.614 391.906L575.853 393.477L563.711 403.051L562.473 401.48ZM561.46 386.857L564.077 402.096L562.106 402.435L559.489 387.196L561.46 386.857ZM544.985 386.636L560.435 386.027L560.514 388.026L545.064 388.634L544.985 386.636ZM552.762 374.211L545.922 388.077L544.128 387.193L550.968 373.326L552.762 374.211ZM539.563 364.348L552.42 372.937L551.309 374.6L538.452 366.011L539.563 364.348ZM553.158 358.866L539.473 366.064L538.542 364.294L552.227 357.096L553.158 358.866ZM548.277 343.129L553.63 357.635L551.754 358.327L546.401 343.822L548.277 343.129ZM562.497 346.685L547.195 344.465L547.483 342.486L562.784 344.706L562.497 346.685ZM557.215 373.182C559.994 383.554 570.655 389.71 581.028 386.93L581.546 388.862C570.106 391.927 558.348 385.139 555.283 373.699L557.215 373.182ZM570.963 349.368C560.591 352.148 554.435 362.809 557.215 373.182L555.283 373.699C552.218 362.26 559.006 350.502 570.446 347.436L570.963 349.368ZM594.777 363.117C591.997 352.744 581.336 346.589 570.963 349.368L570.446 347.436C581.885 344.371 593.643 351.16 596.708 362.599L594.777 363.117ZM581.028 386.93C591.4 384.151 597.556 373.489 594.777 363.117L596.708 362.599C599.774 374.039 592.985 385.797 581.546 388.862L581.028 386.93Z" fill="#B1A9B0" mask="url(#path-57-inside-3_6_1574)"/>
<path d="M490.024 420.5C476.94 415.594 454.37 405.945 445.866 406.599C435.235 407.416 404.979 408.234 403.344 395.15" stroke="#312D32" stroke-width="2"/>
<path d="M458.28 47.506C464.168 52.4307 541.551 52.1324 573.934 44.253C573.934 65.9215 544.309 81.322 531.879 85.9184C519.449 87.8882 496.551 85.2617 481.832 77.054C464.168 67.2046 450.992 64.6746 447.067 54.8253C444.18 47.5829 449.448 47.506 458.28 47.506Z" fill="#55525A"/>
<path d="M458.28 41C464.168 45.9247 545.617 48.8795 578 41C578 62.6685 544.308 74.816 531.878 79.4123C519.448 81.3822 496.551 78.7557 481.831 70.548C464.168 60.6986 447.485 68.5781 443.56 58.7288C440.674 51.4864 449.448 41 458.28 41Z" fill="#EFE5E3"/>
<path d="M517.819 45.7961C522.673 44.8369 544.998 46.7553 578 41C578 62.1029 544.674 73.9333 532.379 78.4096C533.35 70.0964 533.35 52.5107 517.819 45.7961Z" fill="#312D32"/>
<path d="M403.29 366.741C401.201 371.068 403.607 376.222 408.265 377.4C411.981 378.339 415.814 376.361 417.201 372.788L439.793 314.594C440.784 312.04 439.583 309.159 437.072 308.065C434.558 306.97 431.628 308.056 430.435 310.526L403.29 366.741Z" fill="#302B35"/>
<circle r="12.2661" transform="matrix(0.999996 -0.00269277 -0.00269277 -0.999996 406.605 375.725)" fill="#302B35"/>
<rect width="34.345" height="13.0838" rx="2" transform="matrix(0.999996 -0.00269277 -0.00269277 -0.999996 420.345 315.993)" fill="#302B35"/>
<path d="M420.34 313.993C420.343 315.097 421.241 315.99 422.345 315.987L430.158 315.966L430.123 302.882L422.31 302.904C421.206 302.906 420.313 303.804 420.316 304.909L420.34 313.993Z" fill="#070707"/>
<path d="M260.239 237.326C273.05 229.967 302.598 219.663 318.299 237.326C337.924 259.405 393.531 291.297 404.161 288.026C412.666 285.41 434.418 278.759 444.23 275.76" stroke="#312D32" stroke-width="2"/>
<path d="M569.842 394.395C585.013 394.757 597.465 382.473 597.309 367.298C597.157 352.464 584.996 340.57 570.162 340.746L407.399 342.682C394.189 342.839 383.607 353.675 383.764 366.885C383.918 379.762 394.238 390.207 407.113 390.514L569.842 394.395Z" fill="#EEE3E4"/>
<path fill-rule="evenodd" clip-rule="evenodd" d="M461.94 218.476C464.429 219.488 465.626 222.325 464.615 224.813C464.282 225.632 463.751 226.312 463.1 226.818L463.176 226.849L446.113 268.829L430.962 262.671L447.107 222.948L438.237 219.342C435.749 218.331 434.551 215.494 435.563 213.005C436.574 210.517 439.411 209.319 441.9 210.331L461.94 218.476Z" fill="#F3EBEA"/>
<path d="M472.034 251.884L435.335 235.267L381.676 353.776C377.088 363.91 381.583 375.845 391.717 380.434C401.851 385.022 413.786 380.527 418.375 370.393L472.034 251.884Z" fill="#EFE5E3"/>
<rect width="105.599" height="41.6779" transform="matrix(-0.936827 -0.349793 -0.481295 0.876559 456.167 252.502)" fill="#E2DEDE"/>
<rect width="122.308" height="41.6779" transform="matrix(-0.936827 -0.349793 -0.481295 0.876559 472.034 251.883)" fill="#EFE5E3"/>
<rect width="147.021" height="41.6779" transform="matrix(-0.936827 -0.349793 -0.481295 0.876559 358.336 215.974)" fill="#E2DEDE"/>
<rect width="146.472" height="41.6779" transform="matrix(-0.936827 -0.349793 -0.481295 0.876559 357.826 209.24)" fill="#EFE5E3"/>
<rect width="11.4483" height="3.27096" rx="1.63548" transform="matrix(-0.936565 -0.350494 -0.350494 0.936565 327.546 205.613)" fill="#A39AA8"/>
<rect width="11.4483" height="3.27096" rx="1.63548" transform="matrix(-0.936565 -0.350494 -0.350494 0.936565 342.831 211.082)" fill="#A39AA8"/>
<rect width="11.4483" height="3.27096" rx="1.63548" transform="matrix(-0.936565 -0.350494 -0.350494 0.936565 311.739 199.157)" fill="#A39AA8"/>
<rect width="11.4483" height="3.27096" rx="1.63548" transform="matrix(-0.936565 -0.350494 -0.350494 0.936565 295.93 192.701)" fill="#A39AA8"/>
<path d="M405.816 385.335C407.917 381.014 405.525 375.853 400.87 374.663C397.156 373.713 393.318 375.681 391.921 379.25L369.173 437.384C368.175 439.935 369.368 442.819 371.877 443.92C374.388 445.022 377.32 443.943 378.52 441.477L405.816 385.335Z" fill="#302B35"/>
<circle r="12.2661" transform="matrix(-1 0 0 1 402.525 376.342)" fill="#302B35"/>
<rect width="34.345" height="13.0838" rx="2" transform="matrix(-1 0 0 1 388.624 436.037)" fill="#302B35"/>
<path d="M388.624 438.037C388.624 436.933 387.729 436.037 386.624 436.037H378.811V449.121H386.624C387.729 449.121 388.624 448.226 388.624 447.121V438.037Z" fill="#070707"/>
<defs>
<linearGradient id="paint0_linear_6_1574" x1="1.3771" y1="112.741" x2="32.4985" y2="111.901" gradientUnits="userSpaceOnUse">
<stop offset="0.153731" stop-color="#35383B"/>
<stop offset="1" stop-color="#5F5F5F"/>
</linearGradient>
<radialGradient id="paint1_radial_6_1574" cx="0" cy="0" r="1" gradientUnits="userSpaceOnUse" gradientTransform="translate(24.5322 24.5322) rotate(90) scale(24.5322)">
<stop stop-color="#727272"/>
<stop offset="1" stop-color="#555555"/>
</radialGradient>
</defs>
</svg>
