<svg width="817" height="576" viewBox="0 0 817 576" fill="none" xmlns="http://www.w3.org/2000/svg">
<ellipse cx="143.527" cy="570.286" rx="122.608" ry="5.71429" fill="#3A3D51" fill-opacity="0.9"/>
<ellipse cx="666.5" cy="536" rx="122.608" ry="5.71429" fill="#DBDBDB"/>
<rect width="35.1975" height="9.37447" rx="4.68724" transform="matrix(0.90731 -0.420462 0.432148 0.901803 512.527 40.5871)" fill="#8C2F46"/>
<path d="M486.288 52.6676C484.911 51.7005 485.003 49.6537 486.46 48.8347L535.831 21.0761C538.118 19.7903 541.042 20.7155 542.177 23.0837C543.252 25.3269 542.294 27.9932 540.037 29.0391L488.596 52.8779C487.848 53.2246 486.966 53.1442 486.288 52.6676Z" fill="#EFE5E3"/>
<rect width="62.5348" height="3.74979" rx="1.87489" transform="matrix(0.90731 -0.420462 0.432148 0.901803 496.639 63.6761)" fill="#EFE5E3"/>
<rect width="64.2647" height="14.0365" rx="7.01825" transform="matrix(0.819381 0.573249 -0.586143 0.810208 520.071 0)" fill="#7E1E26"/>
<rect width="39.6415" height="7.52899" rx="3.7645" transform="matrix(0.770892 0.636966 -0.649598 0.760278 541.487 28.0586)" fill="#2B1F27"/>
<path d="M549.86 42.0552C536.942 46.6327 532.754 61.681 539.986 85.9795" stroke="#383B3D" stroke-width="2"/>
<path d="M296 422.286C296 501.184 230.937 565.286 150.5 565.286C70.0633 565.286 5 501.184 5 422.286C5 343.388 70.0633 279.286 150.5 279.286C230.937 279.286 296 343.388 296 422.286Z" stroke="#312D32" stroke-width="10"/>
<path d="M281.023 422.286C281.023 493.112 222.625 550.599 150.5 550.599C78.3748 550.599 19.9775 493.112 19.9775 422.286C19.9775 351.46 78.3748 293.973 150.5 293.973C222.625 293.973 281.023 351.46 281.023 422.286Z" stroke="#DFD7DE" stroke-width="5"/>
<path d="M274.255 422.286C274.255 489.461 218.872 543.96 150.5 543.96C82.1284 543.96 26.7452 489.461 26.7452 422.286C26.7452 355.111 82.1284 300.612 150.5 300.612C218.872 300.612 274.255 355.111 274.255 422.286Z" stroke="#C3BEBE" stroke-width="3"/>
<path d="M132.935 318.738C131.381 307.28 122.666 309.296 117.487 308.66C140.79 301.021 182.348 306.75 177.687 306.75C173.027 306.75 168.537 312.373 164.977 317.784C163.358 336.244 164.977 386.85 164.977 396.08C164.977 401.809 178.57 412.313 178.57 412.313C178.57 412.313 236.828 456.235 243.625 456.235C249.063 456.235 260.867 449.976 267.016 448.066C269.929 456.66 250.422 490.079 236.828 502.492C238.447 497.081 240.712 484.88 236.828 481.061C231.974 476.287 170.803 444.777 164.977 444.777C159.151 444.777 143.615 441.913 134.877 444.777C126.537 447.511 75.6477 479.151 70.7935 485.835C66.91 491.182 69.1754 503.341 70.7935 508.751C51.4615 499.627 35.839 462.641 35.8386 456.235C35.8385 453.795 59.1419 460.054 63.0257 456.235C66.9096 452.416 117.4 418.042 125.168 412.313C131.382 407.729 133.258 400.218 133.906 394.171C134.553 376.984 134.488 330.196 132.935 318.738Z" fill="#DED6D6"/>
<rect x="143.703" y="327.757" width="9.70968" height="64.929" fill="#E1DDDD"/>
<rect x="149.528" y="327.757" width="3.88387" height="64.929" fill="#D3D1D1"/>
<rect width="9.59911" height="65.6848" transform="matrix(0.565634 0.824657 -0.833341 0.552759 126.59 423.241)" fill="#E1DDDD"/>
<rect width="3.83965" height="65.6848" transform="matrix(0.565634 0.824657 -0.833341 0.552759 129.848 427.99)" fill="#D3D1D1"/>
<rect width="9.59183" height="65.734" transform="matrix(0.523781 -0.851853 0.859528 0.511088 172.832 435.231)" fill="#E1DDDD"/>
<rect width="3.83673" height="65.734" transform="matrix(0.523781 -0.851853 0.859528 0.511088 175.847 430.328)" fill="#D3D1D1"/>
<path d="M158.739 417.512C158.739 422.501 154.623 426.56 149.529 426.56C144.435 426.56 140.319 422.501 140.319 417.512C140.319 412.522 144.435 408.463 149.529 408.463C154.623 408.463 158.739 412.522 158.739 417.512Z" stroke="black"/>
<path d="M152.913 417.512C152.913 419.337 151.406 420.831 149.529 420.831C147.652 420.831 146.145 419.337 146.145 417.512C146.145 415.686 147.652 414.192 149.529 414.192C151.406 414.192 152.913 415.686 152.913 417.512Z" stroke="black"/>
<ellipse cx="164.094" cy="418.466" rx="2.9129" ry="2.86452" fill="#312D32"/>
<ellipse cx="150.5" cy="403.189" rx="2.9129" ry="2.86452" fill="#312D32"/>
<ellipse cx="134.964" cy="418.466" rx="2.9129" ry="2.86452" fill="#312D32"/>
<ellipse cx="150.5" cy="431.834" rx="2.9129" ry="2.86452" fill="#312D32"/>
<path d="M35.9258 455.705C40.1333 469.709 52.6264 499.628 68.9387 507.266" stroke="#9B9594"/>
<path d="M175.745 306.75C161.312 303.317 135.936 301.976 119.429 308.66" stroke="#9B9594"/>
<path d="M237.887 501.537C248.31 491.136 265.318 465.424 267.987 448.066" stroke="#9B9594"/>
<path d="M812 385.714C812 464.612 746.937 528.714 666.5 528.714C586.063 528.714 521 464.612 521 385.714C521 306.816 586.063 242.714 666.5 242.714C746.937 242.714 812 306.816 812 385.714Z" stroke="#312D32" stroke-width="10"/>
<path d="M797.023 385.714C797.023 456.54 738.625 514.027 666.5 514.027C594.375 514.027 535.978 456.54 535.978 385.714C535.978 314.888 594.375 257.401 666.5 257.401C738.625 257.401 797.023 314.888 797.023 385.714Z" stroke="#DFD7DE" stroke-width="5"/>
<path d="M790.255 385.714C790.255 452.889 734.872 507.388 666.5 507.388C598.129 507.388 542.745 452.889 542.745 385.714C542.745 318.539 598.129 264.04 666.5 264.04C734.872 264.04 790.255 318.539 790.255 385.714Z" stroke="#C3BEBE" stroke-width="3"/>
<path d="M648.935 282.167C647.381 270.709 638.666 272.725 633.487 272.088C656.79 264.45 698.348 270.179 693.687 270.179C689.027 270.179 684.537 275.801 680.977 281.212C679.358 299.672 680.977 350.279 680.977 359.509C680.977 365.238 694.57 375.741 694.57 375.741C694.57 375.741 752.828 419.664 759.625 419.664C765.063 419.664 776.867 413.404 783.016 411.495C785.929 420.088 766.422 453.508 752.828 465.92C754.447 460.51 756.712 448.309 752.828 444.49C747.974 439.715 686.803 408.206 680.977 408.206C675.151 408.206 659.615 405.341 650.877 408.206C642.537 410.94 591.648 442.58 586.793 449.264C582.91 454.611 585.175 466.769 586.793 472.18C567.461 463.056 551.839 426.069 551.839 419.664C551.838 417.224 575.142 423.483 579.026 419.664C582.91 415.844 633.4 381.47 641.168 375.741C647.382 371.158 649.258 363.647 649.906 357.599C650.553 340.412 650.488 293.625 648.935 282.167Z" fill="#DED6D6"/>
<rect x="659.703" y="291.185" width="9.70968" height="64.929" fill="#E1DDDD"/>
<rect x="665.528" y="291.185" width="3.88387" height="64.929" fill="#D3D1D1"/>
<rect width="9.59911" height="65.6848" transform="matrix(0.565634 0.824657 -0.833341 0.552759 642.59 386.669)" fill="#E1DDDD"/>
<rect width="3.83965" height="65.6848" transform="matrix(0.565634 0.824657 -0.833341 0.552759 645.848 391.419)" fill="#D3D1D1"/>
<rect width="9.59183" height="65.734" transform="matrix(0.523781 -0.851853 0.859528 0.511088 688.832 398.659)" fill="#E1DDDD"/>
<rect width="3.83673" height="65.734" transform="matrix(0.523781 -0.851853 0.859528 0.511088 691.847 393.757)" fill="#D3D1D1"/>
<path d="M674.739 380.94C674.739 385.93 670.623 389.988 665.529 389.988C660.435 389.988 656.319 385.93 656.319 380.94C656.319 375.951 660.435 371.892 665.529 371.892C670.623 371.892 674.739 375.951 674.739 380.94Z" stroke="black"/>
<path d="M668.913 380.94C668.913 382.765 667.406 384.259 665.529 384.259C663.652 384.259 662.145 382.765 662.145 380.94C662.145 379.115 663.652 377.621 665.529 377.621C667.406 377.621 668.913 379.115 668.913 380.94Z" stroke="black"/>
<ellipse cx="680.094" cy="381.895" rx="2.9129" ry="2.86452" fill="#312D32"/>
<ellipse cx="666.5" cy="366.617" rx="2.9129" ry="2.86452" fill="#312D32"/>
<ellipse cx="650.964" cy="381.895" rx="2.9129" ry="2.86452" fill="#312D32"/>
<ellipse cx="666.5" cy="395.263" rx="2.9129" ry="2.86452" fill="#312D32"/>
<path d="M551.926 419.134C556.133 433.138 568.626 463.056 584.939 470.695" stroke="#9B9594"/>
<path d="M691.745 270.179C677.312 266.745 651.936 265.405 635.429 272.088" stroke="#9B9594"/>
<path d="M753.887 464.966C764.31 454.564 781.318 428.852 783.987 411.495" stroke="#9B9594"/>
<rect width="18.9625" height="288.793" transform="matrix(0.928576 -0.371142 0.381967 0.924176 210.148 91.7377)" fill="url(#paint0_linear_4_995)"/>
<path d="M498.404 67.1705L526.218 54.7859L674.05 375.858C677.567 383.495 674.191 392.459 666.51 395.879C658.829 399.299 649.753 395.88 646.236 388.243L498.404 67.1705Z" fill="#EFE5E3"/>
<ellipse cx="663.555" cy="385.738" rx="28.5104" ry="28.0368" fill="url(#paint1_radial_4_995)"/>
<mask id="path-50-inside-1_4_995" fill="white">
<path fill-rule="evenodd" clip-rule="evenodd" d="M553.284 182.447L535.496 190.368L560.192 244.004L492.58 274.109L497.473 284.738L565.086 254.632L565.086 254.633L582.874 246.713L553.284 182.447Z"/>
</mask>
<path fill-rule="evenodd" clip-rule="evenodd" d="M553.284 182.447L535.496 190.368L560.192 244.004L492.58 274.109L497.473 284.738L565.086 254.632L565.086 254.633L582.874 246.713L553.284 182.447Z" fill="#EFE5E3"/>
<path d="M535.496 190.368L535.089 189.454L534.164 189.866L534.588 190.786L535.496 190.368ZM553.284 182.447L554.192 182.029L553.779 181.132L552.877 181.534L553.284 182.447ZM560.192 244.004L560.599 244.917L561.524 244.505L561.1 243.586L560.192 244.004ZM492.58 274.109L492.173 273.196L491.248 273.607L491.671 274.527L492.58 274.109ZM497.473 284.738L496.565 285.156L496.978 286.053L497.88 285.651L497.473 284.738ZM565.086 254.632L565.993 254.212L565.579 253.318L564.679 253.719L565.086 254.632ZM565.086 254.633L564.179 255.054L564.593 255.947L565.493 255.547L565.086 254.633ZM582.874 246.713L583.281 247.626L584.206 247.214L583.782 246.294L582.874 246.713ZM535.903 191.281L553.691 183.361L552.877 181.534L535.089 189.454L535.903 191.281ZM561.1 243.586L536.405 189.949L534.588 190.786L559.284 244.422L561.1 243.586ZM492.986 275.023L560.599 244.917L559.785 243.09L492.173 273.196L492.986 275.023ZM498.382 284.32L493.488 273.691L491.671 274.527L496.565 285.156L498.382 284.32ZM564.679 253.719L497.067 283.824L497.88 285.651L565.493 255.546L564.679 253.719ZM565.993 254.212L565.993 254.212L564.179 255.053L564.179 255.054L565.993 254.212ZM582.467 245.799L564.679 253.719L565.493 255.547L583.281 247.626L582.467 245.799ZM552.376 182.866L581.966 247.131L583.782 246.294L554.192 182.029L552.376 182.866Z" fill="#E1E1E1" mask="url(#path-50-inside-1_4_995)"/>
<ellipse cx="346.349" cy="423.564" rx="32.3117" ry="31.775" fill="#EEE3E4"/>
<path d="M178.137 468.422C184.156 460.323 206.077 443.937 245.612 443.189" stroke="#565656"/>
<path fill-rule="evenodd" clip-rule="evenodd" d="M180.87 461.729C182.162 460.089 182.89 458.235 182.89 456.273C182.89 449.563 174.38 444.124 163.883 444.124C153.386 444.124 144.876 449.563 144.876 456.273C144.876 462.983 153.386 468.422 163.883 468.422C164.609 468.422 165.325 468.396 166.029 468.346C166.948 471.609 170.318 474.03 174.335 474.03C179.059 474.03 182.888 470.682 182.888 466.553C182.888 464.715 182.129 463.031 180.87 461.729Z" fill="#312D32"/>
<mask id="path-55-inside-2_4_995" fill="white">
<path fill-rule="evenodd" clip-rule="evenodd" d="M156.116 391.795L146.93 376.608L137.743 391.795L121.234 384.818L122.88 402.415L105.353 406.313L117.203 419.597L105.353 432.882L122.88 436.78L121.234 454.377L137.743 447.4L146.93 462.587L156.116 447.4L172.625 454.377L170.979 436.78L188.506 432.882L176.656 419.597L188.506 406.313L170.979 402.415L172.625 384.818L156.116 391.795ZM147.879 443.896C161.001 443.896 171.638 433.435 171.638 420.532C171.638 407.628 161.001 397.168 147.879 397.168C134.757 397.168 124.12 407.628 124.12 420.532C124.12 433.435 134.757 443.896 147.879 443.896Z"/>
</mask>
<path d="M146.93 376.608L147.785 376.09L146.93 374.675L146.074 376.09L146.93 376.608ZM156.116 391.795L155.26 392.313L155.708 393.053L156.505 392.716L156.116 391.795ZM137.743 391.795L137.354 392.716L138.151 393.053L138.599 392.313L137.743 391.795ZM121.234 384.818L121.623 383.897L120.083 383.246L120.238 384.911L121.234 384.818ZM122.88 402.415L123.097 403.391L123.958 403.199L123.876 402.321L122.88 402.415ZM105.353 406.313L105.136 405.337L103.473 405.707L104.607 406.978L105.353 406.313ZM117.203 419.597L117.949 420.263L118.543 419.597L117.949 418.932L117.203 419.597ZM105.353 432.882L104.607 432.216L103.473 433.488L105.136 433.858L105.353 432.882ZM122.88 436.78L123.876 436.873L123.958 435.995L123.097 435.804L122.88 436.78ZM121.234 454.377L120.238 454.284L120.083 455.949L121.623 455.298L121.234 454.377ZM137.743 447.4L138.599 446.882L138.151 446.142L137.354 446.478L137.743 447.4ZM146.93 462.587L146.074 463.105L146.93 464.519L147.785 463.105L146.93 462.587ZM156.116 447.4L156.505 446.478L155.708 446.142L155.26 446.882L156.116 447.4ZM172.625 454.377L172.236 455.298L173.777 455.949L173.621 454.284L172.625 454.377ZM170.979 436.78L170.762 435.804L169.901 435.995L169.983 436.873L170.979 436.78ZM188.506 432.882L188.723 433.858L190.387 433.488L189.252 432.216L188.506 432.882ZM176.656 419.597L175.91 418.932L175.316 419.597L175.91 420.263L176.656 419.597ZM188.506 406.313L189.252 406.978L190.387 405.707L188.723 405.337L188.506 406.313ZM170.979 402.415L169.983 402.321L169.901 403.199L170.762 403.391L170.979 402.415ZM172.625 384.818L173.621 384.911L173.777 383.246L172.236 383.897L172.625 384.818ZM146.074 377.125L155.26 392.313L156.971 391.278L147.785 376.09L146.074 377.125ZM138.599 392.313L147.785 377.125L146.074 376.09L136.888 391.278L138.599 392.313ZM120.845 385.739L137.354 392.716L138.133 390.874L121.623 383.897L120.845 385.739ZM123.876 402.321L122.23 384.725L120.238 384.911L121.884 402.508L123.876 402.321ZM105.57 407.289L123.097 403.391L122.663 401.438L105.136 405.337L105.57 407.289ZM117.949 418.932L106.1 405.647L104.607 406.978L116.456 420.263L117.949 418.932ZM106.1 433.548L117.949 420.263L116.456 418.932L104.607 432.216L106.1 433.548ZM123.097 435.804L105.57 431.906L105.136 433.858L122.663 437.756L123.097 435.804ZM122.23 454.47L123.876 436.873L121.884 436.687L120.238 454.284L122.23 454.47ZM137.354 446.478L120.845 453.456L121.623 455.298L138.133 448.321L137.354 446.478ZM147.785 462.07L138.599 446.882L136.888 447.917L146.074 463.105L147.785 462.07ZM155.26 446.882L146.074 462.07L147.785 463.105L156.971 447.917L155.26 446.882ZM173.014 453.456L156.505 446.478L155.726 448.321L172.236 455.298L173.014 453.456ZM169.983 436.873L171.629 454.47L173.621 454.284L171.975 436.687L169.983 436.873ZM188.289 431.906L170.762 435.804L171.196 437.756L188.723 433.858L188.289 431.906ZM175.91 420.263L187.76 433.548L189.252 432.216L177.403 418.932L175.91 420.263ZM187.76 405.647L175.91 418.932L177.403 420.263L189.252 406.978L187.76 405.647ZM170.762 403.391L188.289 407.289L188.723 405.337L171.196 401.438L170.762 403.391ZM171.629 384.725L169.983 402.321L171.975 402.508L173.621 384.911L171.629 384.725ZM156.505 392.716L173.014 385.739L172.236 383.897L155.726 390.874L156.505 392.716ZM170.638 420.532C170.638 432.867 160.464 442.896 147.879 442.896V444.896C161.537 444.896 172.638 434.003 172.638 420.532H170.638ZM147.879 398.168C160.464 398.168 170.638 408.196 170.638 420.532H172.638C172.638 407.06 161.537 396.168 147.879 396.168V398.168ZM125.12 420.532C125.12 408.196 135.294 398.168 147.879 398.168V396.168C134.221 396.168 123.12 407.06 123.12 420.532H125.12ZM147.879 442.896C135.294 442.896 125.12 432.867 125.12 420.532H123.12C123.12 434.003 134.221 444.896 147.879 444.896V442.896Z" fill="#B1A9B0" mask="url(#path-55-inside-2_4_995)"/>
<mask id="path-57-inside-3_4_995" fill="white">
<path fill-rule="evenodd" clip-rule="evenodd" d="M163.12 395.081L158.244 378.073L145.374 390.405L131.263 379.463L128.222 396.879L110.266 396.184L118.216 412.031L103.274 421.847L119.177 430.074L112.956 446.652L130.739 444.114L135.615 461.122L148.485 448.79L162.596 459.732L165.637 442.316L183.593 443.011L175.644 427.164L190.586 417.348L174.682 409.121L180.903 392.543L163.12 395.081ZM141.451 443.31C154.125 446.65 167.153 439.253 170.549 426.789C173.945 414.325 166.424 401.514 153.749 398.174C141.075 394.834 128.047 402.231 124.651 414.695C121.255 427.159 128.776 439.97 141.451 443.31Z"/>
</mask>
<path d="M158.244 378.073L159.208 377.792L158.753 376.205L157.552 377.356L158.244 378.073ZM163.12 395.081L162.156 395.361L162.394 396.191L163.255 396.068L163.12 395.081ZM145.374 390.405L144.755 391.194L145.438 391.723L146.066 391.121L145.374 390.405ZM131.263 379.463L131.883 378.674L130.564 377.652L130.276 379.299L131.263 379.463ZM128.222 396.879L128.176 397.876L129.058 397.911L129.209 397.043L128.222 396.879ZM110.266 396.184L110.313 395.186L108.61 395.121L109.369 396.635L110.266 396.184ZM118.216 412.031L118.763 412.863L119.51 412.373L119.113 411.58L118.216 412.031ZM103.274 421.847L102.726 421.016L101.298 421.954L102.807 422.734L103.274 421.847ZM119.177 430.074L120.116 430.417L120.426 429.591L119.644 429.187L119.177 430.074ZM112.956 446.652L112.018 446.308L111.429 447.877L113.091 447.64L112.956 446.652ZM130.739 444.114L131.703 443.834L131.465 443.004L130.604 443.127L130.739 444.114ZM135.615 461.122L134.651 461.403L135.106 462.99L136.307 461.839L135.615 461.122ZM148.485 448.79L149.105 448.001L148.422 447.472L147.793 448.074L148.485 448.79ZM162.596 459.732L161.977 460.521L163.296 461.543L163.583 459.896L162.596 459.732ZM165.637 442.316L165.684 441.319L164.802 441.284L164.65 442.152L165.637 442.316ZM183.593 443.011L183.547 444.009L185.25 444.074L184.49 442.56L183.593 443.011ZM175.644 427.164L175.096 426.332L174.349 426.822L174.746 427.615L175.644 427.164ZM190.586 417.348L191.133 418.179L192.561 417.241L191.053 416.461L190.586 417.348ZM174.682 409.121L173.744 408.778L173.434 409.604L174.215 410.008L174.682 409.121ZM180.903 392.543L181.842 392.887L182.43 391.318L180.768 391.555L180.903 392.543ZM157.28 378.353L162.156 395.361L164.084 394.8L159.208 377.792L157.28 378.353ZM146.066 391.121L158.936 378.789L157.552 377.356L144.682 389.688L146.066 391.121ZM130.644 380.252L144.755 391.194L145.993 389.616L131.883 378.674L130.644 380.252ZM129.209 397.043L132.251 379.627L130.276 379.299L127.235 396.715L129.209 397.043ZM110.22 397.181L128.176 397.876L128.268 395.882L110.313 395.186L110.22 397.181ZM119.113 411.58L111.164 395.733L109.369 396.635L117.319 412.483L119.113 411.58ZM103.821 422.679L118.763 412.863L117.668 411.2L102.726 421.016L103.821 422.679ZM119.644 429.187L103.741 420.961L102.807 422.734L118.71 430.96L119.644 429.187ZM113.894 446.995L120.116 430.417L118.239 429.73L112.018 446.308L113.894 446.995ZM130.604 443.127L112.821 445.664L113.091 447.64L130.874 445.102L130.604 443.127ZM136.579 460.842L131.703 443.834L129.776 444.395L134.651 461.403L136.579 460.842ZM147.793 448.074L134.923 460.406L136.307 461.839L149.178 449.507L147.793 448.074ZM163.215 458.943L149.105 448.001L147.866 449.579L161.977 460.521L163.215 458.943ZM164.65 442.152L161.609 459.568L163.583 459.896L166.625 442.48L164.65 442.152ZM183.639 442.014L165.684 441.319L165.591 443.313L183.547 444.009L183.639 442.014ZM174.746 427.615L182.696 443.462L184.49 442.56L176.541 426.712L174.746 427.615ZM190.038 416.516L175.096 426.332L176.191 427.995L191.133 418.179L190.038 416.516ZM174.215 410.008L190.119 418.234L191.053 416.461L175.149 408.235L174.215 410.008ZM179.965 392.2L173.744 408.778L175.62 409.465L181.842 392.887L179.965 392.2ZM163.255 396.068L181.038 393.531L180.768 391.555L162.985 394.093L163.255 396.068ZM169.582 426.534C166.335 438.452 153.867 445.548 141.714 442.345L141.188 444.275C154.383 447.752 167.971 440.054 171.516 427.044L169.582 426.534ZM153.486 399.139C165.64 402.341 172.829 414.616 169.582 426.534L171.516 427.044C175.061 414.034 167.207 400.686 154.012 397.209L153.486 399.139ZM125.618 414.95C128.865 403.032 141.333 395.937 153.486 399.139L154.012 397.209C140.817 393.732 127.229 401.43 123.684 414.44L125.618 414.95ZM141.714 442.345C129.56 439.143 122.37 426.868 125.618 414.95L123.684 414.44C120.139 427.45 127.993 440.798 141.188 444.275L141.714 442.345Z" fill="#B1A9B0" mask="url(#path-57-inside-3_4_995)"/>
<path d="M247.513 480.572C262.718 474.964 288.948 463.937 298.831 464.684C311.186 465.619 346.349 466.553 348.249 451.6" stroke="#312D32" stroke-width="2"/>
<path d="M284.404 54.2925C277.561 59.9207 187.63 59.5799 149.995 50.5748C149.995 75.3388 184.425 92.9394 198.871 98.1924C213.316 100.444 239.927 97.442 257.033 88.0616C277.561 76.8053 292.874 73.9138 297.436 62.6574C300.79 54.3805 294.668 54.2925 284.404 54.2925Z" fill="#55525A"/>
<path d="M284.405 46.8571C277.562 52.4853 182.905 55.8622 145.27 46.8571C145.27 71.6211 184.426 85.504 198.871 90.757C213.317 93.0082 239.927 90.0065 257.034 80.6262C277.562 69.3699 296.949 78.375 301.511 67.1186C304.866 58.8416 294.669 46.8571 284.405 46.8571Z" fill="#EFE5E3"/>
<path d="M215.21 52.3384C209.57 51.2422 183.624 53.4347 145.27 46.8571C145.27 70.9747 184 84.4952 198.289 89.611C197.161 80.1102 197.161 60.0122 215.21 52.3384Z" fill="#312D32"/>
<path d="M348.266 419.041C350.719 424.036 347.954 429.966 342.546 431.31C338.221 432.386 333.739 430.084 332.107 425.949L305.913 359.595C304.748 356.643 306.132 353.324 309.052 352.074C311.974 350.823 315.391 352.09 316.792 354.944L348.266 419.041Z" fill="#302B35"/>
<ellipse rx="14.2552" ry="14.0184" transform="matrix(-0.999996 -0.00264804 0.00273826 -0.999996 344.459 429.4)" fill="#302B35"/>
<rect width="39.9145" height="14.9529" rx="2" transform="matrix(-0.999996 -0.00264804 0.00273826 -0.999996 328.49 361.135)" fill="#302B35"/>
<path d="M328.496 359.135C328.493 360.239 327.595 361.132 326.49 361.129L317.086 361.104L317.127 346.151L326.531 346.176C327.636 346.179 328.529 347.077 328.526 348.182L328.496 359.135Z" fill="#070707"/>
<path d="M514.56 271.23C499.671 262.819 465.332 251.044 447.085 271.23C424.277 296.463 359.654 332.911 347.299 329.173C337.416 326.182 312.136 318.581 300.732 315.155" stroke="#312D32" stroke-width="2"/>
<path d="M154.207 450.749C136.869 451.156 122.65 437.12 122.831 419.779C123.009 402.821 136.915 389.219 153.873 389.417L344.009 391.632C359.102 391.808 371.188 404.186 371.005 419.279C370.827 433.998 359.022 445.937 344.306 446.282L154.207 450.749Z" fill="#EEE3E4"/>
<path fill-rule="evenodd" clip-rule="evenodd" d="M279.556 249.924C276.992 250.949 275.769 253.849 276.823 256.401L277.26 257.458C277.605 258.292 278.15 258.986 278.818 259.506L298.544 307.233L316.152 300.196L297.388 254.797L308.291 250.44C310.855 249.415 312.079 246.515 311.024 243.963L310.587 242.906C309.532 240.354 306.598 239.116 304.034 240.141L279.556 249.924Z" fill="#F3EBEA"/>
<path d="M268.42 287.867L311.07 268.877L373.323 404.083C378.715 415.793 373.538 429.537 361.761 434.782C349.984 440.026 336.065 434.783 330.673 423.073L268.42 287.867Z" fill="#EFE5E3"/>
<rect width="122.475" height="47.8194" transform="matrix(0.938721 -0.344678 0.487505 0.87312 286.859 288.574)" fill="#E2DEDE"/>
<rect width="141.855" height="47.8194" transform="matrix(0.938721 -0.344678 0.487505 0.87312 268.42 287.866)" fill="#EFE5E3"/>
<rect width="170.518" height="47.8194" transform="matrix(0.938721 -0.344678 0.487505 0.87312 400.555 246.828)" fill="#E2DEDE"/>
<rect width="169.881" height="47.8194" transform="matrix(0.938721 -0.344678 0.487505 0.87312 401.149 239.132)" fill="#EFE5E3"/>
<rect width="13.2779" height="3.74605" rx="1.87303" transform="matrix(0.938466 -0.345372 0.355671 0.934611 436.338 234.987)" fill="#A39AA8"/>
<rect width="13.2779" height="3.74605" rx="1.87303" transform="matrix(0.938466 -0.345372 0.355671 0.934611 418.575 241.236)" fill="#A39AA8"/>
<rect width="13.2779" height="3.74605" rx="1.87303" transform="matrix(0.938466 -0.345372 0.355671 0.934611 454.709 227.608)" fill="#A39AA8"/>
<rect width="13.2779" height="3.74605" rx="1.87303" transform="matrix(0.938466 -0.345372 0.355671 0.934611 473.081 220.229)" fill="#A39AA8"/>
<path d="M345.421 440.474C342.955 435.486 345.704 429.549 351.108 428.19C355.43 427.103 359.918 429.393 361.562 433.524L387.937 499.808C389.111 502.757 387.735 506.079 384.819 507.337C381.901 508.596 378.48 507.338 377.071 504.488L345.421 440.474Z" fill="#302B35"/>
<ellipse cx="349.2" cy="430.105" rx="14.2552" ry="14.0184" fill="#302B35"/>
<rect x="365.356" y="498.328" width="39.9145" height="14.9529" rx="2" fill="#302B35"/>
<path d="M365.356 500.328C365.356 499.224 366.251 498.328 367.356 498.328H376.76V513.281H367.356C366.251 513.281 365.356 512.386 365.356 511.281V500.328Z" fill="#070707"/>
<defs>
<linearGradient id="paint0_linear_4_995" x1="1.59667" y1="129.158" x2="37.6796" y2="128.172" gradientUnits="userSpaceOnUse">
<stop offset="0.153731" stop-color="#35383B"/>
<stop offset="1" stop-color="#5F5F5F"/>
</linearGradient>
<radialGradient id="paint1_radial_4_995" cx="0" cy="0" r="1" gradientUnits="userSpaceOnUse" gradientTransform="translate(663.555 385.738) rotate(90) scale(28.0368 28.5104)">
<stop stop-color="#727272"/>
<stop offset="1" stop-color="#555555"/>
</radialGradient>
</defs>
</svg>
