<svg width="43" height="37" viewBox="0 0 43 37" fill="none" xmlns="http://www.w3.org/2000/svg">
<path d="M13.0987 29.2311C13.0987 32.7194 10.2773 35.5454 6.79935 35.5454C3.32135 35.5454 0.5 32.7194 0.5 29.2311C0.5 25.7427 3.32135 22.9167 6.79935 22.9167C10.2773 22.9167 13.0987 25.7427 13.0987 29.2311Z" fill="white" stroke="white"/>
<path d="M42.2386 29.2311C42.2386 32.7194 39.4172 35.5454 35.9392 35.5454C32.4612 35.5454 29.6399 32.7194 29.6399 29.2311C29.6399 25.7427 32.4612 22.9167 35.9392 22.9167C39.4172 22.9167 42.2386 25.7427 42.2386 29.2311Z" fill="white" stroke="white"/>
<path d="M13.5983 31.1779H29.1396" stroke="white" stroke-linecap="round"/>
<path d="M12.6267 19.4961H20.3974M20.3974 19.4961H28.1681V2.94696H20.3974M20.3974 19.4961L7.77002 2.94696L13.598 1M20.3974 19.4961L12.6267 28.2574" stroke="white" stroke-linecap="round"/>
</svg>
