<svg width="350" height="203" viewBox="0 0 350 203" fill="none" xmlns="http://www.w3.org/2000/svg">
<path d="M162.785 0.9375V200H121.77L41.7891 66.5625V200H0.773438V0.9375H41.7891L121.906 134.512V0.9375H162.785ZM308.391 0.9375H349.27V132.461C349.27 147.773 345.988 160.671 339.426 171.152C332.954 181.634 323.977 189.518 312.492 194.805C301.099 200.091 287.974 202.734 273.117 202.734C258.26 202.734 245.044 200.091 233.469 194.805C221.984 189.518 212.961 181.634 206.398 171.152C199.927 160.671 196.691 147.773 196.691 132.461V0.9375H237.707V132.461C237.707 141.393 239.12 148.685 241.945 154.336C244.771 159.987 248.827 164.134 254.113 166.777C259.491 169.421 265.826 170.742 273.117 170.742C280.591 170.742 286.926 169.421 292.121 166.777C297.408 164.134 301.418 159.987 304.152 154.336C306.978 148.685 308.391 141.393 308.391 132.461V0.9375Z" fill="#BF4242"/>
</svg>
